<?xml version="1.0" standalone="no"?><!DOCTYPE svg PUBLIC "-//W3C//DTD SVG 1.1//EN" "http://www.w3.org/Graphics/SVG/1.1/DTD/svg11.dtd"><svg t="1699533816354" class="icon" viewBox="0 0 1024 1024" version="1.1" xmlns="http://www.w3.org/2000/svg" p-id="82474" data-spm-anchor-id="a313x.search_index.0.i230.30253a81LQtG0O" xmlns:xlink="http://www.w3.org/1999/xlink" width="200" height="200"><path d="M904.704 982.016H119.296c-59.392 0-107.52-48.128-107.52-107.52V162.304c0-59.392 48.128-107.52 107.52-107.52h308.224c46.592 0 91.136 22.016 119.296 58.88l2.56 4.096 77.312 124.928h277.504c59.392 0 107.52 48.128 107.52 107.52v524.8c0.512 58.88-47.616 107.008-107.008 107.008zM119.296 146.944c-8.192 0-15.36 7.168-15.36 15.36v712.192c0 8.192 7.168 15.36 15.36 15.36h785.92c8.192 0 15.36-7.168 15.36-15.36V349.696c0-8.192-7.168-15.36-15.36-15.36h-328.704L472.576 168.448c-11.264-13.312-27.648-21.504-45.056-21.504H119.296z" fill="#1296db" p-id="82475" data-spm-anchor-id="a313x.search_index.0.i229.30253a81LQtG0O" class=""></path><path d="M209.92 464.896h99.84v99.84H209.92zM353.28 464.896h460.8v99.84H353.28zM209.92 656.896h99.84v99.84H209.92zM353.28 656.896h460.8v99.84H353.28z" fill="#1296db" p-id="82476" data-spm-anchor-id="a313x.search_index.0.i231.30253a81LQtG0O" class=""></path></svg>