<?xml version="1.0" standalone="no"?><!DOCTYPE svg PUBLIC "-//W3C//DTD SVG 1.1//EN" "http://www.w3.org/Graphics/SVG/1.1/DTD/svg11.dtd"><svg t="1699531490984" class="icon" viewBox="0 0 1024 1024" version="1.1" xmlns="http://www.w3.org/2000/svg" p-id="17766" id="mx_n_1699531490985" width="200" height="200" xmlns:xlink="http://www.w3.org/1999/xlink"><path d="M751.1 289.2H271.4c-29.3 0-53.2 23.8-53.2 53.2v229.5c0 29.3 23.8 53.2 53.2 53.2H751c29.3 0 53.2-23.8 53.2-53.2V342.3c0-29.3-23.8-53.1-53.1-53.1zM598.6 467.8l-120.9 69.7c-9.7 5.6-21.9-1.4-21.9-12.6V385.5c0-11.3 12.2-18.3 21.9-12.6l120.9 69.7c9.7 5.6 9.7 19.6 0 25.2z m0 0" fill="#93cbe8" p-id="17767" data-spm-anchor-id="a313x.search_index.0.i54.30253a81LQtG0O" class=""></path><path d="M854.8 140.7h-685c-51.9 0-94 42.1-94 94v443.6c0 51.9 42.1 94 94 94h269.6c16.5 0 29.9 13.4 29.9 29.9s-13.4 29.9-29.9 29.9H199.8c-17.3 0-31.3 14-31.3 31.3s14 31.3 31.3 31.3h625c17.3 0 31.3-14 31.3-31.3s-14-31.3-31.3-31.3H585.2c-16.5 0-29.9-13.4-29.9-29.9s13.4-29.9 29.9-29.9h269.6c51.9 0 94-42.1 94-94V234.7c0-51.9-42.1-94-94-94z m31.4 537.7c0 17.4-14.1 31.5-31.5 31.5h-685c-17.4 0-31.5-14.1-31.5-31.5V234.7c0-17.4 14.1-31.5 31.5-31.5h685c17.4 0 31.5 14.1 31.5 31.5v443.7z m0 0" fill="#1296db" p-id="17768"></path></svg>