<?xml version="1.0" standalone="no"?><!DOCTYPE svg PUBLIC "-//W3C//DTD SVG 1.1//EN" "http://www.w3.org/Graphics/SVG/1.1/DTD/svg11.dtd"><svg t="1699533892830" class="icon" viewBox="0 0 1024 1024" version="1.1" xmlns="http://www.w3.org/2000/svg" p-id="84131" data-spm-anchor-id="a313x.search_index.0.i243.30253a81LQtG0O" xmlns:xlink="http://www.w3.org/1999/xlink" width="200" height="200"><path d="M270.02 463.1c-19.89 0-36.28-15.72-35.27-34.9 0-19.16 15.9-34.9 35.27-34.9h175.02c19.37 0 35.27 15.73 35.27 34.9 0 19.17-15.9 34.9-35.27 34.9H270.02z m0 202.97c-19.89 0-36.28-15.72-35.27-34.9 0-19.16 15.9-34.89 35.27-34.89h380.8c19.89 0 35.81 15.72 35.81 34.89s-16.42 34.9-35.81 34.9h-380.8z m418.1-525.87c8.45 6.39 13.42 15.73 13.42 26.54 0 13.76-8.45 25.56-20.88 30.96l-5.47 2.46-6.46 1.48H202.41c-36.76 0-67.12 31.94-67.12 71.75v479.67c0 39.81 30.35 71.75 67.12 71.75h618.45c36.78 0 67.12-31.94 67.12-71.75V374.63c2.48-17.2 17.89-29.98 35.27-29.98 19.41 0 35.31 15.73 35.31 34.9v374.01c0 77.66-62.14 141.05-138.22 141.05H202.41c-76.55 0-138.2-63.39-138.2-141.54V272.89c0-78.14 62.16-141.54 138.2-141.05h473.77l11.94 8.36z m0 0" fill="#1296db" p-id="84132" data-spm-anchor-id="a313x.search_index.0.i239.30253a81LQtG0O" class=""></path><path d="M624.49 390.85l265.45-255.07c13.44-13.76 37.31-13.76 51.21 0 6.96 6.88 10.45 15.72 10.45 25.07 0 9.34-3.49 18.18-10.45 25.06L675.69 441.47c-6.96 6.88-15.9 10.32-25.34 10.32-9.46 0-18.42-3.44-25.38-10.32-14.42-13.76-14.42-35.88-0.48-50.62z" fill="#1296db" p-id="84133" data-spm-anchor-id="a313x.search_index.0.i242.30253a81LQtG0O" class="selected"></path></svg>