<?xml version="1.0" standalone="no"?><!DOCTYPE svg PUBLIC "-//W3C//DTD SVG 1.1//EN" "http://www.w3.org/Graphics/SVG/1.1/DTD/svg11.dtd"><svg t="1699533660258" class="icon" viewBox="0 0 1024 1024" version="1.1" xmlns="http://www.w3.org/2000/svg" p-id="78758" data-spm-anchor-id="a313x.search_index.0.i221.30253a81LQtG0O" xmlns:xlink="http://www.w3.org/1999/xlink" width="200" height="200"><path d="M580.296348 135.613217c141.668174 25.822609 257.335652 132.096 296.514782 269.133913 2.893913 10.061913 5.342609 20.301913 7.435131 30.72l7.078956 34.459827 41.494261 0.445217a19.589565 19.589565 0 0 0 19.767652-22.528 111.437913 111.437913 0 0 0-1.647304-9.438609l-1.335652-5.832348c-0.667826-2.938435-1.424696-5.965913-2.092522-9.527652-34.816-177.552696-177.775304-318.508522-355.817739-350.920348h-0.133565a478.430609 478.430609 0 0 0-22.795131-3.517217 13.445565 13.445565 0 0 0-10.061913 2.938435 14.692174 14.692174 0 0 0-5.431652 11.397565l-0.044522 49.062957c1.825391 0.178087 2.671304 0.178087 3.472696 0.222608 0.890435 0 1.647304 0.044522 3.82887 0.311652l0.089043-0.53426h0.089044v0.578782a420.641391 420.641391 0 0 1 19.411478 2.982957l0.178087 0.044521z" fill="#8abfdb" p-id="78759" data-spm-anchor-id="a313x.search_index.0.i222.30253a81LQtG0O" class=""></path><path d="M622.413913 405.192348a4.452174 4.452174 0 0 1-4.452174-4.452174V112.417391l-65.001739 0.75687v352.612174a4.452174 4.452174 0 0 0 4.452174 4.452174h361.73913l0.267131-65.001739h-296.96z" fill="#8abfdb" p-id="78760" data-spm-anchor-id="a313x.search_index.0.i223.30253a81LQtG0O" class=""></path><path d="M513.958957 505.945043a8.859826 8.859826 0 0 0 5.965913 2.270609l397.000347-0.489739c11.887304 0 21.504 9.616696 21.504 21.459478a42.963478 42.963478 0 0 1-42.918956 43.052522l-440.05287 0.534261a8.904348 8.904348 0 0 1-8.904348-8.904348l0.089044-450.693565a32.233739 32.233739 0 0 1 64.512 0l-0.133565 386.137043a8.904348 8.904348 0 0 0 2.938435 6.633739z" fill="#1296db" p-id="78761" data-spm-anchor-id="a313x.search_index.0.i220.30253a81LQtG0O" class=""></path><path d="M888.965565 547.617391c-20.925217 189.17287-187.837217 344.998957-381.106087 344.998957-206.758957 0-374.917565-168.158609-374.962087-374.873044 0-193.135304 146.832696-352.612174 334.803479-372.736 2.626783-0.311652 5.253565-0.534261 7.924869-0.756869a34.281739 34.281739 0 0 0 32.233739-33.613913c0-17.808696-14.469565-32.367304-32.233739-31.076174a445.484522 445.484522 0 0 0-17.185391 1.602782c-219.136 24.620522-390.010435 211.033043-390.010435 436.580174 0 242.287304 197.142261 439.340522 439.429565 439.340522 225.591652 0 419.305739-179.600696 444.905739-399.938783a437.114435 437.114435 0 0 0 1.691826-17.363478c1.335652-17.719652-13.222957-32.189217-31.031652-32.189217a34.281739 34.281739 0 0 0-32.946087 27.380869 35.617391 35.617391 0 0 0-0.756869 4.808348 346.067478 346.067478 0 0 1-0.75687 7.791305z" fill="#1296db" p-id="78762" data-spm-anchor-id="a313x.search_index.0.i219.30253a81LQtG0O" class=""></path></svg>