<?xml version="1.0" standalone="no"?><!DOCTYPE svg PUBLIC "-//W3C//DTD SVG 1.1//EN" "http://www.w3.org/Graphics/SVG/1.1/DTD/svg11.dtd"><svg t="1699532774087" class="icon" viewBox="0 0 1024 1024" version="1.1" xmlns="http://www.w3.org/2000/svg" p-id="39926" xmlns:xlink="http://www.w3.org/1999/xlink" width="200" height="200"><path d="M0 0m380.342857 0l263.314286 0q380.342857 0 380.342857 380.342857l0 263.314286q0 380.342857-380.342857 380.342857l-263.314286 0q-380.342857 0-380.342857-380.342857l0-263.314286q0-380.342857 380.342857-380.342857Z" fill="#1296db" p-id="39927" data-spm-anchor-id="a313x.search_index.0.i139.30253a81LQtG0O" class=""></path><path d="M699.611429 708.871314h-375.222858c-13.897143 0-23.157029 9.274514-23.157028 23.171657 0 13.897143 9.259886 23.157029 23.157028 23.157029h375.222858c13.897143 0 23.157029-9.259886 23.157028-23.157029s-11.5712-23.171657-23.157028-23.171657zM257.214171 467.997257c-13.897143 0-23.157029 9.259886-23.157028 23.157029v92.642743c0 13.897143 9.259886 23.171657 23.157028 23.171657s23.171657-9.274514 23.171658-23.171657v-92.642743c0-13.897143-9.274514-23.157029-23.171658-23.157029z m509.571658 0c-13.897143 0-23.171657 9.259886-23.171658 23.157029v92.642743c0 13.897143 9.274514 23.171657 23.171658 23.171657 13.897143 0 23.157029-9.274514 23.157028-23.171657v-92.642743c0-13.897143-9.259886-23.157029-23.157028-23.157029z m-185.300115-83.382857h-46.328685V345.234286a58.514286 58.514286 0 0 0 34.742857-53.277257A57.344 57.344 0 0 0 512 234.057143c-32.431543 0-57.899886 27.794286-57.899886 57.899886a58.514286 58.514286 0 0 0 34.742857 53.277257v39.380114H442.514286c-83.382857 0-150.557257 67.159771-150.557257 150.542629S359.131429 685.714286 442.514286 685.714286h138.971428c83.382857 0 150.557257-67.1744 150.557257-150.557257S664.868571 384.6144 581.485714 384.6144zM430.928457 581.485714a46.460343 46.460343 0 0 1-46.314057-46.328685 46.460343 46.460343 0 0 1 46.314057-46.314058 46.460343 46.460343 0 0 1 46.328686 46.314058c0 27.794286-20.845714 46.328686-46.328686 46.328685z m162.143086 0a46.460343 46.460343 0 0 1-46.328686-46.328685 46.460343 46.460343 0 0 1 46.328686-46.314058 46.460343 46.460343 0 0 1 46.314057 46.314058c0 27.794286-20.845714 46.328686-46.314057 46.328685z" fill="#FFFFFF" p-id="39928"></path></svg>