<?xml version="1.0" standalone="no"?><!DOCTYPE svg PUBLIC "-//W3C//DTD SVG 1.1//EN" "http://www.w3.org/Graphics/SVG/1.1/DTD/svg11.dtd"><svg t="1699533737693" class="icon" viewBox="0 0 1024 1024" version="1.1" xmlns="http://www.w3.org/2000/svg" p-id="81160" xmlns:xlink="http://www.w3.org/1999/xlink" width="200" height="200"><path d="M0 0m64 0l896 0q64 0 64 64l0 896q0 64-64 64l-896 0q-64 0-64-64l0-896q0-64 64-64Z" fill="#1296db" p-id="81161" data-spm-anchor-id="a313x.search_index.0.i226.30253a81LQtG0O" class=""></path><path d="M414.528 615.68l219.52-110.336a27.648 27.648 0 0 0 0-49.344l-219.52-110.336a27.392 27.392 0 0 0-39.68 24.64v220.672c0 20.608 21.44 33.856 39.68 24.704z m-176.832 189.76a27.328 27.328 0 0 1-27.648 27.904h-54.4A27.328 27.328 0 0 1 128 805.44v-54.592c0-15.36 11.712-27.84 27.648-27.84h54.4c15.232 0 27.648 11.776 27.648 27.84v54.592z m0-297.472a27.328 27.328 0 0 1-27.648 27.904h-54.4A27.392 27.392 0 0 1 128 507.968v-54.656c0-15.36 11.712-27.84 27.648-27.84h54.4c15.232 0 27.648 11.84 27.648 27.84v54.656z m0-297.472c0 15.36-11.712 27.84-27.648 27.84h-54.4A27.328 27.328 0 0 1 128 210.496v-54.656c0-15.36 11.712-27.84 27.648-27.84h54.4c15.232 0 27.648 11.84 27.648 27.84v54.656zM896 805.44a27.328 27.328 0 0 1-27.712 27.904h-54.4a27.328 27.328 0 0 1-27.584-27.904v-54.592c0-15.36 11.776-27.84 27.648-27.84h54.4c15.232 0 27.648 11.776 27.648 27.84v54.592z m0-297.472a27.392 27.392 0 0 1-27.712 27.904h-54.4a27.328 27.328 0 0 1-27.584-27.904v-54.656c0-15.36 11.776-27.84 27.648-27.84h54.4c15.232 0 27.648 11.84 27.648 27.84v54.656z m0-297.472c0 15.36-11.776 27.84-27.712 27.84h-54.4a27.328 27.328 0 0 1-27.584-27.84v-54.656c0-15.36 11.776-27.84 27.648-27.84h54.4c15.232 0 27.648 11.84 27.648 27.84v54.656z" fill="#FFFFFF" p-id="81162"></path></svg>