<?xml version="1.0" standalone="no"?><!DOCTYPE svg PUBLIC "-//W3C//DTD SVG 1.1//EN" "http://www.w3.org/Graphics/SVG/1.1/DTD/svg11.dtd"><svg t="1699533954862" class="icon" viewBox="0 0 1024 1024" version="1.1" xmlns="http://www.w3.org/2000/svg" p-id="85677" data-spm-anchor-id="a313x.search_index.0.i247.30253a81LQtG0O" xmlns:xlink="http://www.w3.org/1999/xlink" width="200" height="200"><path d="M658.173486 875.472801H365.652741c-196.406786 0-355.203762-158.796976-355.203761-355.203762V355.203762C10.44898 160.88641 171.335389 0 365.652741 0h292.520745c194.317352 0 355.203762 160.88641 355.203762 355.203762v165.065277c0 194.317352-160.88641 355.203762-355.203762 355.203762z" fill="#1296db" p-id="85678" data-spm-anchor-id="a313x.search_index.0.i246.30253a81LQtG0O" class=""></path><path d="M259.091613 451.317721m-81.487922 0a81.487922 81.487922 0 1 0 162.975844 0 81.487922 81.487922 0 1 0-162.975844 0Z" fill="#FFFFFF" p-id="85679"></path><path d="M520.270849 451.317721m-81.487922 0a81.487922 81.487922 0 1 0 162.975844 0 81.487922 81.487922 0 1 0-162.975844 0Z" fill="#FFFFFF" p-id="85680"></path><path d="M781.450086 451.317721m-81.487922 0a81.487922 81.487922 0 1 0 162.975844 0 81.487922 81.487922 0 1 0-162.975844 0Z" fill="#FFFFFF" p-id="85681"></path><path d="M254.912745 973.676194l-43.878112-206.853956c-10.447169-48.05698 35.520376-87.756223 81.487922-73.130186l200.585654 64.772451c45.967546 14.626037 58.504149 73.130186 22.983772 106.561128l-156.707541 142.081505c-35.520376 33.430942-94.024525 14.626037-104.471695-33.430942z" fill="#1296db" p-id="85682" data-spm-anchor-id="a313x.search_index.0.i245.30253a81LQtG0O" class=""></path></svg>