<?xml version="1.0" standalone="no"?><!DOCTYPE svg PUBLIC "-//W3C//DTD SVG 1.1//EN" "http://www.w3.org/Graphics/SVG/1.1/DTD/svg11.dtd"><svg t="1699532166976" class="icon" viewBox="0 0 1024 1024" version="1.1" xmlns="http://www.w3.org/2000/svg" p-id="33103" xmlns:xlink="http://www.w3.org/1999/xlink" width="200" height="200"><path d="M128 287.04a63.872 63.872 0 0 0-63.872 63.872v415.296c0 70.528 57.216 127.744 127.744 127.744h203.776c13.504 0 24.96 9.472 34.752 18.816 8.96 8.448 20.736 13.184 33.024 13.12h95.808a47.872 47.872 0 0 0 33.024-13.12c9.792-9.344 21.248-18.816 34.752-18.816h203.776a127.744 127.744 0 0 0 127.744-127.744V350.912a63.872 63.872 0 0 0-63.872-63.872H128z" fill="#3E8BF8" p-id="33104"></path><path d="M191.872 95.36A63.872 63.872 0 0 0 128 159.36v574.976c0 52.928 42.88 95.808 95.808 95.808h574.976a95.808 95.808 0 0 0 95.872-95.808V159.296a63.872 63.872 0 0 0-63.872-63.872h-127.808A191.68 191.68 0 0 0 511.36 287.04a191.68 191.68 0 0 0-191.616-191.616H191.872z" fill="#80B7F9" p-id="33105"></path><path d="M441.856 597.568a47.936 47.936 0 0 1-47.872 47.872H246.4a47.936 47.936 0 1 1 0-95.808h147.584c26.432 0 47.872 21.44 47.872 47.936M442.88 405.76a47.936 47.936 0 0 1-48 47.872H247.36a47.936 47.936 0 0 1 0-95.872H394.88c26.496 0 48 21.504 48 48M821.824 597.568a47.936 47.936 0 0 1-47.936 47.872H626.368a47.936 47.936 0 1 1 0-95.808h147.52c26.496 0 48 21.44 48 47.936M822.784 405.76a47.936 47.936 0 0 1-47.936 47.872H627.264a47.936 47.936 0 0 1 0-95.872h147.584c26.496 0 47.936 21.504 47.936 48" fill="#FFFFFF" p-id="33106"></path></svg>