<?xml version="1.0" standalone="no"?><!DOCTYPE svg PUBLIC "-//W3C//DTD SVG 1.1//EN" "http://www.w3.org/Graphics/SVG/1.1/DTD/svg11.dtd"><svg t="1699532566953" class="icon" viewBox="0 0 1024 1024" version="1.1" xmlns="http://www.w3.org/2000/svg" p-id="35544" xmlns:xlink="http://www.w3.org/1999/xlink" width="200" height="200"><path d="M430.08 81.92c188.047 0 344.945 133.386 381.215 310.702C912.405 436.941 983.04 537.907 983.04 655.36c0 67.912-23.613 130.314-63.078 179.425l16.69 50.033a40.96 40.96 0 0 1-51.814 51.814l-65.966-21.995A285.614 285.614 0 0 1 696.32 942.08c-80.527 0-153.293-33.178-205.373-86.63a394.6 394.6 0 0 1-60.867 4.71 387.686 387.686 0 0 1-162.222-35.328L157.49 857.948a40.96 40.96 0 0 1-50.626-52.183l27.32-81.981A387.584 387.584 0 0 1 40.96 471.04c0-214.897 174.223-389.12 389.12-389.12z m389.079 384.573l0.041 4.547c0 168.264-106.783 311.562-256.287 365.855A224.256 224.256 0 0 0 696.32 880.64c30.986 0 61.01-6.226 88.74-18.145l7.516-3.38 22.323-10.567 50.504 16.834-14.316-42.946 20.992-26.133A224.051 224.051 0 0 0 921.6 655.36c0-79.094-40.755-148.685-102.441-188.867z" fill="#1296db" p-id="35545" data-spm-anchor-id="a313x.search_index.0.i117.30253a81LQtG0O" class=""></path><path d="M286.72 327.68h286.72q40.96 0 40.96 40.96t-40.96 40.96H286.72q-40.96 0-40.96-40.96t40.96-40.96z m0 204.8h163.84q40.96 0 40.96 40.96t-40.96 40.96H286.72q-40.96 0-40.96-40.96t40.96-40.96z" fill="#FFFFFF" p-id="35546"></path></svg>